# xmcd CD database file
#
# Track frame offsets:
#	150
#	19955
#	42282
#	69781
#	90265
#	119608
#	136744
#	159181
#	178315
#	195109
#	211696
#	236362
#	311302
#
# Disc length: 4393 seconds
#
# Revision: 0
# Processed by: cddbd v1.5.1PL0 Copyright (c) Steve Scherf et al.
# Submitted via: CDex 1.51
#
DISCID=9611270d
DTITLE=Guitar Attitudes - Blues
DYEAR=2002
DGENRE=Blues
TTITLE0=Jerry Lynn Williams feat Eric Clapton - You Better Rock Me Baby
TTITLE1=Jerry Lynn Williams feat Stevie Ray Vaughan - Just How You Play The Game
TTITLE2=Peter Nathanson - Dont't Throw Your Love Away
TTITLE3=Tony Galla - Travellin' On
TTITLE4=Walter Trout - Come Home
TTITLE5=Michael Katon - The Detroit Dirty River Blues
TTITLE6=Omar and The Howlers - When Sugar Cane Was King
TTITLE7=Van Wilks - The Spank
TTITLE8=Rob Tognoni - Revenge Of The Monkeygrinder
TTITLE9=Dave Hole - He Knows The Rule
TTITLE10=Craig Erickson - Businessman
TTITLE11=Popa Chubby, Walter Trout and Michael Lee Firkins - Red House
TTITLE12=Lance Keltner - Chain Gang
EXTD=YEAR: 2002
EXTT0=
EXTT1=
EXTT2=
EXTT3=
EXTT4=
EXTT5=
EXTT6=
EXTT7=
EXTT8=
EXTT9=
EXTT10=
EXTT11=
EXTT12=
PLAYORDER=
